<svg width="75" height="48" viewBox="0 0 75 48" fill="none" xmlns="http://www.w3.org/2000/svg">
<path d="M5.035 45.2342C5.80366 45.3509 7.10109 45.6475 7.73369 45.8784C7.77431 45.9035 7.82139 45.9171 7.86975 45.9171C7.90457 45.9171 7.94004 45.91 7.97357 45.8952L8.42626 45.6953C8.48752 45.6682 8.53653 45.6179 8.56168 45.5553L8.77254 45.0311C8.79898 44.9659 8.79704 44.8931 8.76867 44.8292C8.7403 44.7654 8.68678 44.7157 8.621 44.6919C7.91102 44.4365 6.5491 44.1489 5.80946 44.0264C5.76496 44.0187 5.71918 44.0232 5.67726 44.0393L5.23619 44.2037C5.14784 44.2179 5.07111 44.2779 5.03693 44.3649L4.8338 44.886C4.80543 44.9588 4.81188 45.0407 4.85057 45.1091C4.88926 45.1774 4.95761 45.2232 5.035 45.2348V45.2342Z" fill="#222326"/>
<path d="M13.2794 45.1406C13.6908 44.559 13.9719 43.9322 14.0558 43.7362C14.0835 43.6691 14.1518 43.5524 14.1854 43.5047C14.2653 43.3899 14.2395 43.2325 14.1273 43.1493L13.7759 42.8901C13.7069 42.8392 13.6173 42.8256 13.5367 42.8546C13.4922 42.8708 13.3522 42.894 13.1523 42.894H11.1475C10.9837 42.894 10.6845 42.8721 10.5968 42.8592C10.5516 42.8527 10.5059 42.8579 10.4639 42.8746L10.0919 43.021C10.0474 43.0294 10.0048 43.0494 9.96935 43.0797C9.9126 43.1287 9.87971 43.2003 9.87971 43.2751V43.8948C9.87971 43.9657 9.90937 44.0341 9.96096 44.0831C10.0126 44.1321 10.0822 44.1566 10.1538 44.1527C10.1738 44.1514 10.2041 44.1489 10.2421 44.1463C10.3679 44.1366 10.5781 44.1205 10.7354 44.1205H12.365C12.2012 44.4584 11.9452 44.8447 11.6827 45.1381C11.2474 45.6262 10.6793 46.0834 10.1235 46.3942C10.0622 46.4207 10.008 46.4432 9.95774 46.4619C9.94936 46.4652 9.94097 46.469 9.93259 46.4729L9.56632 46.6593L9.55342 46.6644C9.54568 46.6676 9.5373 46.6709 9.52956 46.6741C9.44895 46.705 9.39092 46.776 9.37221 46.8598C9.36383 46.8953 9.36383 46.932 9.37157 46.9675C9.38189 47.0249 9.4122 47.0758 9.45476 47.1132L9.87971 47.5588C9.95645 47.6394 10.0751 47.6614 10.1757 47.6143C10.3124 47.5504 10.4523 47.4776 10.5923 47.3976C10.5936 47.397 10.5955 47.3963 10.5968 47.3957C11.1636 47.13 11.7401 46.7379 12.2747 46.2537C12.7035 46.6767 13.1123 47.1397 13.3999 47.5266C13.4219 47.5691 13.4554 47.6053 13.498 47.6298C13.5386 47.6536 13.5837 47.6652 13.6289 47.6652C13.674 47.6652 13.7217 47.653 13.7623 47.6278L14.1331 47.4034C14.1467 47.3957 14.1589 47.386 14.1705 47.3757L14.6458 46.954C14.7496 46.8624 14.7619 46.705 14.6748 46.598C14.3537 46.2046 13.7939 45.6056 13.2781 45.1406H13.2794Z" fill="#222326"/>
<path d="M19.9013 43.3159L19.4635 43.0457C19.3957 43.0038 19.3132 42.9954 19.2391 43.0231C19.1675 43.0496 19.043 43.0664 18.9231 43.0664H18.0596C18.0977 43.0019 18.137 42.9361 18.1757 42.8787C18.2208 42.811 18.2312 42.7265 18.2047 42.6498C18.1783 42.573 18.1164 42.5137 18.039 42.4892L17.4232 42.2945C17.36 42.2745 17.2916 42.2796 17.2323 42.3087L16.9563 42.4434C16.9369 42.4486 16.9182 42.4563 16.9002 42.466C16.8383 42.4995 16.7931 42.5563 16.7744 42.624C16.7383 42.7542 16.6506 42.9535 16.5874 43.0638C16.3624 43.4803 15.8478 44.2651 14.9244 44.8358C14.8528 44.8803 14.807 44.9571 14.8025 45.0415C14.798 45.126 14.8354 45.2073 14.9018 45.2588L15.3338 45.5942C15.3525 45.6154 15.3758 45.6335 15.4009 45.6477C15.4796 45.6915 15.5757 45.6909 15.6537 45.6457L15.9974 45.4491C16.0038 45.4452 16.0103 45.4413 16.0161 45.4375C16.1296 45.3588 16.2386 45.2769 16.3411 45.1937C16.3611 45.2272 16.3895 45.2556 16.423 45.2775C16.6745 45.4381 16.9666 45.6354 17.2536 45.8373C17.1149 45.9643 16.9679 46.083 16.8131 46.1913C16.5165 46.3615 16.1921 46.5008 15.8484 46.6053C15.8259 46.6124 15.8039 46.6221 15.784 46.6349L15.4835 46.8278C15.419 46.8542 15.3687 46.9064 15.3429 46.9709C15.3242 47.0154 15.3177 47.0651 15.3261 47.1147C15.339 47.1902 15.3835 47.254 15.4467 47.2927L15.9091 47.699C15.9568 47.7409 16.018 47.7634 16.0793 47.7634C16.1102 47.7634 16.1412 47.7576 16.1709 47.7467C16.6558 47.5622 17.102 47.3249 17.4973 47.0406C17.7398 46.891 17.9693 46.7233 18.1815 46.5395C18.295 46.633 18.404 46.7246 18.4943 46.8071C18.5175 46.8381 18.5484 46.8632 18.5839 46.8813C18.6697 46.9238 18.7715 46.9161 18.8496 46.86L19.1481 46.6459C19.1655 46.6337 19.1817 46.6188 19.1952 46.6021L19.595 46.1268C19.6395 46.0739 19.6608 46.0049 19.6543 45.9359C19.6479 45.8669 19.6137 45.8037 19.5595 45.7599C19.4602 45.6799 19.3177 45.5677 19.1462 45.44C19.4467 44.9783 19.7033 44.4483 19.8633 43.9517C19.8955 43.8595 19.949 43.7383 19.9929 43.6551C20.0561 43.5352 20.0161 43.3862 19.9007 43.3153L19.9013 43.3159ZM18.3479 44.2393C18.286 44.3947 18.2079 44.5592 18.1196 44.721C17.861 44.5508 17.6134 44.3967 17.3941 44.2684C17.3703 44.2542 17.3445 44.2445 17.318 44.2387H18.3485L18.3479 44.2393Z" fill="#222326"/>
<path d="M25.3155 44.3262L25.251 44.3314C25.1208 44.3424 24.9421 44.3578 24.7306 44.3578H21.7914C21.5244 44.3578 21.2181 44.3391 21.035 44.3282L21.0015 44.3262C20.9434 44.3224 20.886 44.3385 20.839 44.372L20.6107 44.5307C20.5849 44.5423 20.5604 44.5584 20.5391 44.5784C20.4875 44.6274 20.4585 44.6951 20.4585 44.766V45.4457C20.4585 45.5179 20.4888 45.5869 20.5423 45.6359C20.5958 45.6849 20.6668 45.7094 20.739 45.7024C20.9183 45.6862 21.2375 45.6759 21.5328 45.6759H24.5146C24.681 45.6759 24.8564 45.6869 24.9847 45.6953C25.0131 45.6972 25.0389 45.6985 25.0627 45.7004C25.0846 45.7062 25.1066 45.7088 25.1291 45.7088C25.193 45.7088 25.2568 45.6849 25.3071 45.6379L25.5135 45.4412C25.5644 45.3928 25.5934 45.3251 25.5934 45.2542V44.5842C25.5934 44.512 25.5631 44.4436 25.5102 44.3946C25.4574 44.3456 25.3864 44.3211 25.3149 44.3269L25.3155 44.3262Z" fill="#222326"/>
<path d="M30.3195 44.8494C29.8256 44.6075 28.9189 44.26 28.1786 44.0259V43.3733C28.1786 43.196 28.1999 42.9619 28.2154 42.7917C28.2218 42.7194 28.198 42.6479 28.1489 42.5943C28.0999 42.5408 28.0309 42.5105 27.9587 42.5105H27.2939C27.2165 42.5105 27.1436 42.5453 27.0946 42.6046L26.9837 42.7407C26.9773 42.7465 26.9714 42.7536 26.9656 42.7601C26.9379 42.7929 26.9199 42.8323 26.9108 42.8742C26.9031 42.911 26.9031 42.949 26.9108 42.9858C26.9399 43.1612 26.9534 43.3939 26.9534 43.5377V46.7059C26.9534 46.9238 26.936 47.2037 26.9121 47.3714C26.9018 47.4455 26.9237 47.5203 26.9727 47.5771C27.0217 47.6338 27.0927 47.6661 27.1675 47.6661H27.7898C27.8072 47.6693 27.8246 47.6712 27.842 47.6712C27.8594 47.6712 27.8768 47.6693 27.8942 47.6661C27.9684 47.6506 28.0322 47.6035 28.0683 47.5365L28.1902 47.3114C28.2167 47.263 28.2263 47.2076 28.2192 47.1528C28.1954 46.9799 28.1786 46.6685 28.1786 46.4963V45.4168C28.6713 45.5961 29.2703 45.8399 29.7069 46.072C29.7411 46.1004 29.7836 46.1197 29.8294 46.1268C29.9436 46.1455 30.0558 46.0849 30.1041 45.9798L30.197 45.7773C30.197 45.7773 30.1996 45.7709 30.2009 45.7683L30.444 45.1795C30.4962 45.0538 30.4414 44.9093 30.3189 44.8494H30.3195Z" fill="#222326"/>
<path d="M35.9426 46.3556V43.7027C35.9426 43.5576 35.9426 43.3938 35.9529 43.2571C35.958 43.1843 35.9322 43.1127 35.8819 43.0598C35.8316 43.0069 35.7613 42.9785 35.6878 42.9805C35.5137 42.9856 35.3241 42.9856 35.1984 42.9856H32.2643C32.1302 42.9856 31.9625 42.9856 31.753 42.9753C31.6433 42.9708 31.5421 43.0346 31.5008 43.1365L31.4512 43.2603C31.4247 43.3042 31.4118 43.3545 31.4151 43.4067C31.4151 43.4145 31.4157 43.4222 31.417 43.4299C31.426 43.5621 31.426 43.7408 31.426 43.8723V46.5639C31.426 46.7877 31.4151 47.1959 31.4112 47.2429C31.4028 47.3158 31.4267 47.3887 31.4757 47.4435C31.5247 47.4983 31.5943 47.5292 31.6678 47.5292H32.2134C32.2579 47.5383 32.3043 47.5357 32.3488 47.5209C32.4307 47.4931 32.4933 47.4261 32.5152 47.3429L32.5468 47.2223H34.8341C34.8341 47.2262 34.8341 47.23 34.8341 47.2326C34.8231 47.3048 34.8431 47.3784 34.8895 47.4351C34.9385 47.4951 35.0114 47.5292 35.0888 47.5292H35.6343C35.6517 47.5325 35.6691 47.5344 35.6865 47.5344C35.7207 47.5344 35.7549 47.528 35.7871 47.5138C35.8787 47.4751 35.94 47.3874 35.9445 47.2881L35.9548 47.065C35.9548 47.0611 35.9548 47.0572 35.9548 47.0533C35.9548 47.0392 35.9535 46.9785 35.9522 46.8973C35.949 46.7316 35.9438 46.4814 35.9438 46.3556H35.9426ZM34.8405 44.2121V45.9519H32.5706V44.2121H34.8405ZM34.8328 47.2288C34.8328 47.2288 34.8334 47.2236 34.8341 47.2217C34.8341 47.2217 34.8334 47.2268 34.8328 47.2288Z" fill="#222326"/>
<path d="M65.1607 43.6034C65.5527 43.8684 66.2092 44.4481 66.4717 44.7157C66.4962 44.7409 66.5258 44.7609 66.5581 44.7738L67.0146 44.9601C67.0462 44.973 67.0791 44.9795 67.112 44.9795C67.1546 44.9795 67.1978 44.9685 67.2358 44.9479C67.2713 44.9285 67.3016 44.9008 67.3242 44.8679L67.7291 44.4526C67.8265 44.3527 67.8271 44.1934 67.7298 44.0935C67.4099 43.762 66.6774 43.1765 66.2847 42.9128C66.2543 42.8921 66.2208 42.8799 66.186 42.8741L65.7881 42.727C65.6907 42.6909 65.5811 42.7167 65.5102 42.7928L65.1155 43.2145C65.064 43.2694 65.0388 43.3448 65.0478 43.4196C65.0562 43.4944 65.0968 43.5621 65.16 43.6047L65.1607 43.6034Z" fill="#222326"/>
<path d="M8.97947 43.2326C8.26949 42.9843 6.73217 42.6722 6.04218 42.5825C6.00349 42.5774 5.96415 42.5813 5.9274 42.5935L5.49083 42.7386C5.39862 42.7502 5.31801 42.8108 5.28255 42.8998L5.07942 43.4151C5.0504 43.4892 5.05685 43.5724 5.09748 43.6407C5.1381 43.7091 5.20774 43.7549 5.28642 43.7652C6.01252 43.8587 7.42603 44.1676 8.09087 44.4042C8.13085 44.4288 8.17727 44.4417 8.22435 44.4417C8.25595 44.4417 8.28883 44.4358 8.31979 44.423L8.76731 44.2443C8.8318 44.2185 8.88274 44.1682 8.90982 44.1044L9.13165 43.575C9.15938 43.5092 9.15809 43.435 9.12907 43.3706C9.10005 43.3054 9.04589 43.2551 8.97882 43.2319L8.97947 43.2326Z" fill="#222326"/>
<path d="M8.83631 46.4073C8.07667 46.1132 6.45875 45.7321 5.51856 45.5877C5.47213 45.5806 5.42376 45.5864 5.38056 45.6044L4.93497 45.7895C4.85178 45.8063 4.78021 45.863 4.74667 45.9449L4.52742 46.4821C4.49776 46.5556 4.50292 46.6381 4.54226 46.7071C4.58159 46.7761 4.64995 46.8232 4.72862 46.8348C5.58304 46.9618 7.18485 47.3171 7.91159 47.6157C7.92385 47.6241 7.93674 47.6312 7.95093 47.6376C7.98446 47.6525 8.01993 47.6602 8.05604 47.6602C8.09537 47.6602 8.13471 47.6512 8.17147 47.6331L8.62157 47.4087C8.67509 47.3823 8.71701 47.3378 8.74151 47.2836L8.97946 46.7542C9.00848 46.6897 9.00977 46.6162 8.98269 46.5504C8.9556 46.4853 8.90337 46.4337 8.83695 46.4079L8.83631 46.4073Z" fill="#222326"/>
<path d="M49.4535 43.4881L49.6631 43.6564C49.6856 43.6745 49.7114 43.6887 49.7392 43.6983C50.079 43.897 50.6181 44.2516 50.8741 44.4367C50.9186 44.4689 50.9715 44.4857 51.0256 44.4857C51.0398 44.4857 51.054 44.4844 51.0688 44.4818C51.1372 44.4702 51.1978 44.4315 51.2371 44.3748L51.5441 43.935C51.5705 43.9053 51.5905 43.8699 51.6015 43.8305C51.6324 43.7274 51.5963 43.6113 51.5035 43.5455C51.4725 43.5236 51.4364 43.4984 51.3971 43.4713L51.272 43.3785C50.9966 43.1837 50.384 42.7801 50.05 42.5918C49.932 42.5254 49.7817 42.5615 49.7076 42.675L49.3993 43.1451C49.3265 43.256 49.3503 43.4043 49.4535 43.4875V43.4881Z" fill="#222326"/>
<path d="M37.7017 45.988C37.732 45.988 37.7623 45.9828 37.7907 45.9718L38.2692 45.7958C38.3104 45.7874 38.3504 45.7687 38.3846 45.7416C38.422 45.7113 38.4497 45.6713 38.4652 45.6269C38.4813 45.583 38.4852 45.534 38.4755 45.4856L38.453 45.3122C38.4504 45.2948 38.4465 45.278 38.4407 45.2612C38.3382 44.9646 38.0635 44.2688 37.9306 44.0038C37.8719 43.887 37.7352 43.8322 37.6121 43.8767L37.1039 44.0605C36.9962 44.0992 36.9272 44.205 36.9343 44.3191L36.9459 44.5022C36.9492 44.55 36.9653 44.5951 36.9924 44.6325C37.1072 44.8524 37.367 45.5301 37.4567 45.8093C37.4779 45.8764 37.5263 45.9319 37.5889 45.9622C37.6243 45.9796 37.663 45.9886 37.7017 45.9886V45.988Z" fill="#222326"/>
<path d="M41.1737 44.0961C41.1466 44.0207 41.086 43.9626 41.0092 43.9381L40.4147 43.7492C40.3412 43.726 40.2612 43.7363 40.1961 43.7789C40.1316 43.8208 40.089 43.8898 40.08 43.9665C40.029 44.4237 39.8833 44.8919 39.6795 45.2756C39.6944 45.2278 39.697 45.1762 39.6815 45.1247L39.6428 44.9544C39.6415 44.9486 39.6402 44.9435 39.6383 44.9377C39.5628 44.6829 39.2939 43.9659 39.1959 43.7363C39.143 43.6131 39.005 43.5512 38.878 43.5931L38.3699 43.7608C38.2493 43.8008 38.1751 43.9227 38.1964 44.0478L38.2261 44.2264C38.2319 44.2612 38.2448 44.2935 38.2628 44.3225C38.3898 44.6004 38.6123 45.2246 38.6691 45.4484C38.6871 45.5187 38.7342 45.5786 38.798 45.6128C38.8354 45.6328 38.8774 45.6425 38.9186 45.6425C38.9483 45.6425 38.9779 45.6373 39.0063 45.627L39.4803 45.4555C39.5196 45.4477 39.557 45.431 39.5899 45.4058C39.6028 45.3961 39.6144 45.3845 39.6247 45.3723C39.5596 45.4845 39.49 45.5883 39.4164 45.6805C39.0431 46.1442 38.3982 46.5575 37.7747 46.7342C37.6547 46.7684 37.5767 46.8825 37.5883 47.0063L37.6089 47.2282C37.6154 47.2984 37.6521 47.3604 37.705 47.4029L38.1364 47.8446C38.1861 47.8956 38.2525 47.9227 38.3208 47.9227C38.3518 47.9227 38.3828 47.9175 38.4124 47.9059C39.1611 47.6209 39.8414 47.1205 40.327 46.4975C40.6913 46.0345 40.9654 45.4452 41.1421 44.7455C41.1588 44.6791 41.1846 44.5985 41.2304 44.4695C41.2394 44.4489 41.2459 44.4269 41.2497 44.405C41.2594 44.3508 41.2517 44.2941 41.2265 44.2438L41.173 44.0955L41.1737 44.0961Z" fill="#222326"/>
<path d="M45.7211 44.9358C45.6959 44.8984 45.6617 44.8687 45.6211 44.8487C45.1542 44.6198 44.305 44.2916 43.5789 44.0575V43.5377C43.5789 43.3611 43.5995 43.1321 43.615 42.9625C43.6163 42.9548 43.6169 42.9471 43.6169 42.9393C43.6208 42.8768 43.6002 42.8155 43.5621 42.7665L43.4796 42.633C43.4325 42.5569 43.3493 42.5105 43.2603 42.5105H42.5955C42.5194 42.5105 42.4472 42.544 42.3982 42.6027C42.3491 42.6614 42.3285 42.7381 42.3414 42.8136C42.3724 42.9877 42.3859 43.2263 42.3859 43.374V46.497C42.3859 46.7117 42.3685 46.987 42.3453 47.1521C42.3388 47.1966 42.3446 47.2424 42.3614 47.2843L42.451 47.5094C42.4788 47.5784 42.5342 47.6319 42.6039 47.657C42.6322 47.6667 42.6613 47.6719 42.6903 47.6719C42.7077 47.6719 42.7251 47.6699 42.7425 47.6667H43.3648C43.4396 47.6667 43.5105 47.6345 43.5595 47.5784C43.6085 47.5223 43.6305 47.4475 43.6208 47.3733C43.5963 47.1979 43.5795 46.8813 43.5795 46.7072V45.3743C44.1438 45.5748 44.8138 45.8476 45.2703 46.0952C45.3348 46.13 45.4109 46.1358 45.4799 46.1113C45.5489 46.0868 45.6043 46.0346 45.6321 45.9669L45.8681 45.3943C45.8681 45.3943 45.87 45.3904 45.8707 45.3885C45.881 45.3672 45.8881 45.3453 45.8926 45.3227C45.91 45.2401 45.8849 45.155 45.8288 45.0944L45.7217 44.9364L45.7211 44.9358Z" fill="#222326"/>
<path d="M48.9067 44.9362C49.2317 45.1155 49.7779 45.4611 50.0565 45.6643C50.101 45.6965 50.1545 45.7139 50.2087 45.7139C50.2241 45.7139 50.2396 45.7126 50.2551 45.7094C50.3247 45.6965 50.386 45.6559 50.4247 45.5966L50.722 45.1406C50.7471 45.1103 50.7658 45.0742 50.7755 45.0355C50.8032 44.9336 50.7658 44.8214 50.6749 44.757L50.475 44.588C50.4685 44.5822 50.4614 44.577 50.4543 44.5719C50.1829 44.3817 49.5593 43.9999 49.2182 43.8155C49.1002 43.7516 48.9525 43.789 48.8796 43.9019L48.5772 44.3668C48.5088 44.4713 48.5256 44.6099 48.6165 44.6957L48.8145 44.8814C48.8409 44.9059 48.8725 44.9246 48.9067 44.9356V44.9362Z" fill="#222326"/>
<path d="M53.5019 44.0283L53.8546 43.8723C53.9204 43.8433 53.9713 43.7878 53.9946 43.7194C54.0178 43.6511 54.0113 43.5763 53.9771 43.5131C53.8372 43.2552 53.5993 42.8644 53.4355 42.6477C53.4058 42.6084 53.3658 42.5793 53.322 42.5626L53.1072 42.4304C53.0363 42.3865 52.9486 42.3801 52.8719 42.4123L52.4991 42.569C52.4443 42.5922 52.3998 42.6329 52.3721 42.6838C52.3031 42.6458 52.2199 42.6406 52.1464 42.6722L51.7789 42.8289C51.7066 42.8599 51.6525 42.9218 51.6312 42.9979C51.6105 43.0739 51.6254 43.1546 51.6712 43.2184C51.8395 43.4486 51.9897 43.7117 52.1309 44.0219C52.1496 44.0631 52.1793 44.0986 52.2161 44.1251L52.4585 44.2972C52.0342 44.8931 51.4326 45.4277 50.7277 45.8287C50.2389 46.0983 49.6192 46.3072 48.9828 46.4162C48.8996 46.4304 48.8287 46.4839 48.7932 46.5606C48.7571 46.6367 48.761 46.7257 48.8029 46.7986L49.1214 47.3551C49.1311 47.3712 49.1421 47.3867 49.155 47.4009L49.3607 47.6259C49.4071 47.6762 49.4716 47.7065 49.5399 47.7098C49.5438 47.7098 49.5477 47.7098 49.5509 47.7098C49.5851 47.7098 49.6193 47.7027 49.6502 47.6898C50.1345 47.5918 50.9031 47.3383 51.5009 46.9946C52.4205 46.4555 53.2117 45.7282 53.7289 44.9466C53.783 44.8653 53.7863 44.7602 53.7373 44.6758L53.4026 44.0947C53.3968 44.0844 53.3897 44.0754 53.3826 44.0657C53.4168 44.0631 53.4503 44.0554 53.4819 44.0393C53.4883 44.0361 53.4948 44.0322 53.5012 44.0283H53.5019Z" fill="#222326"/>
<path d="M58.6014 44.3844L58.2506 44.1374C58.2293 44.1226 58.2061 44.111 58.1822 44.1033L57.8991 43.9466C57.8275 43.9072 57.7418 43.904 57.6676 43.9375C57.6257 43.9569 57.5522 43.9827 57.4858 43.9962C57.3355 44.0298 56.77 44.1387 56.1903 44.2503C56.1761 44.1987 56.1638 44.1536 56.1548 44.1181L56.1445 44.0743C56.1187 43.9679 56.0948 43.8673 56.0806 43.7841C56.0716 43.5893 55.8478 43.4913 55.6299 43.3959C55.5783 43.3733 55.5203 43.3681 55.4654 43.3817L54.887 43.5223C54.8077 43.5416 54.7419 43.5971 54.7103 43.6725C54.6787 43.748 54.6839 43.8337 54.7258 43.904C54.769 43.9775 54.809 44.0762 54.8406 44.1903L54.8567 44.2458C54.8754 44.3103 54.8986 44.3928 54.9264 44.4895C54.7768 44.5173 54.6594 44.5385 54.6117 44.5456C54.4511 44.5708 54.3131 44.5921 54.1635 44.6024C54.0874 44.6075 54.0178 44.6462 53.9726 44.7081C53.9275 44.77 53.9127 44.8481 53.9314 44.9222L54.061 45.4407C54.0758 45.5 54.1113 45.5522 54.1609 45.5877L54.4389 45.7863C54.4956 45.827 54.5659 45.8431 54.6342 45.8302C54.6542 45.8263 54.6742 45.8205 54.6923 45.8128C54.8077 45.7883 55.0076 45.7451 55.2514 45.6948C55.4081 46.2848 55.5835 46.9361 55.6473 47.1611C55.6795 47.2656 55.706 47.3978 55.7247 47.5442C55.7331 47.6132 55.7692 47.6757 55.8246 47.7177L56.1264 47.9472C56.1716 47.9814 56.2264 48.0001 56.2825 48.0001C56.2979 48.0001 56.3128 47.9988 56.3283 47.9962C56.3515 47.9924 56.3734 47.9853 56.394 47.9749L56.937 47.8389C57.0079 47.8208 57.0685 47.7738 57.1027 47.7093C57.1369 47.6448 57.1421 47.568 57.1169 47.4997C57.095 47.4397 57.0627 47.3372 57.0344 47.2469C57.017 47.1908 57.0008 47.1392 56.9892 47.105C56.9467 46.9722 56.8551 46.6504 56.7481 46.2661L57.1646 46.4763C57.2646 46.5273 57.3858 46.5073 57.4645 46.4273C57.8611 46.0249 58.4427 45.2066 58.6858 44.7094C58.7413 44.5953 58.7058 44.4579 58.6026 44.3851L58.6014 44.3844Z" fill="#222326"/>
<path d="M63.3377 44.1483C63.45 44.1973 63.5712 44.2231 63.6931 44.2231C64.1857 44.2231 64.5868 43.8246 64.5868 43.3345C64.5868 42.9296 64.316 42.5775 63.9265 42.4724L63.6337 42.3602C63.6337 42.3602 63.6312 42.3589 63.6299 42.3589C63.5202 42.3124 63.4042 42.2886 63.2855 42.2886C62.8412 42.2886 62.4743 42.622 62.4156 43.0521L62.3337 43.0173C62.2757 42.9928 62.2112 42.9902 62.1512 43.0095L61.5947 43.1933C61.5212 43.2178 61.4625 43.2739 61.4348 43.3461C61.4303 43.3584 61.4277 43.3706 61.4251 43.3829C61.4058 43.3726 61.3851 43.3635 61.3632 43.3584L61.0369 43.2094C61.0189 43.201 61.0002 43.1952 60.9815 43.1914L60.3708 43.0669C60.2999 43.0527 60.2257 43.0688 60.167 43.1114C60.1083 43.154 60.0703 43.2197 60.0626 43.292C59.9974 43.8904 59.7988 44.6578 59.5564 45.2478C59.3951 45.6392 59.0998 46.2176 58.7529 46.6697C58.709 46.7271 58.691 46.8006 58.7032 46.8715C58.7161 46.9431 58.7574 47.0056 58.8186 47.0443L59.1636 47.2636C59.1901 47.2804 59.2197 47.2926 59.25 47.2984L59.7995 47.5306C59.8317 47.5441 59.8659 47.5505 59.8994 47.5505C59.982 47.5505 60.0619 47.5106 60.1116 47.4396C60.4217 46.9921 60.7409 46.3853 60.9454 45.8578C61.1691 45.2897 61.3671 44.4978 61.44 44.1283C61.4677 44.0077 61.5057 43.8465 61.538 43.7259C61.7611 44.1515 62.0448 44.8099 62.2164 45.2684C62.442 45.8714 62.6587 46.5639 62.7967 47.1204C62.8141 47.1901 62.8599 47.2494 62.9225 47.2842L63.3268 47.5073C63.3661 47.5293 63.4087 47.5396 63.4512 47.5396C63.4957 47.5396 63.5396 47.528 63.5783 47.506L64.1561 47.3184C64.2883 47.2752 64.3624 47.1353 64.3244 47.0018C64.1709 46.4678 63.8775 45.6063 63.6692 45.0814C63.5538 44.7899 63.4035 44.4417 63.2539 44.1161L63.2984 44.1354C63.3113 44.1406 63.3242 44.1451 63.3371 44.1483H63.3377Z" fill="#222326"/>
<path d="M70.1938 44.4315L69.8591 43.8337C69.8198 43.7634 69.7502 43.7157 69.6715 43.7047L69.2285 43.5468C69.104 43.5023 68.966 43.5597 68.9086 43.679C68.6365 44.2503 68.0265 45.057 67.1314 45.6071C66.535 45.9733 65.8533 46.2164 65.1047 46.328C65.0176 46.3409 64.9435 46.397 64.9073 46.477C64.8712 46.5569 64.8783 46.6498 64.9261 46.7233L65.2878 47.2798C65.3123 47.3178 65.3465 47.3481 65.3871 47.3688L65.8269 47.5925C65.8643 47.6119 65.9043 47.6209 65.9436 47.6209C65.9772 47.6209 66.01 47.6145 66.041 47.6022C66.7871 47.461 67.4867 47.1856 68.1787 46.7607C69.0105 46.2487 69.745 45.491 70.1932 44.6817C70.2364 44.6037 70.2364 44.5089 70.1932 44.4308L70.1938 44.4315Z" fill="#222326"/>
<path d="M7.86903 45.6586L8.32171 45.4587L8.53258 44.9344C7.85742 44.6913 6.51678 44.405 5.76618 44.2805L5.28641 44.4598C5.28641 44.4598 5.27996 44.4585 5.27674 44.4579L5.07361 44.9789C5.86742 45.0995 7.22934 45.4109 7.86645 45.6521L7.86967 45.6586H7.86903Z" fill="#C1C1C1"/>
<path d="M12.9305 45.1782C13.309 44.692 13.6276 44.0813 13.8165 43.6383C13.8546 43.5467 13.9352 43.4113 13.9732 43.3571L13.6218 43.0979C13.5302 43.1301 13.3516 43.1521 13.1517 43.1521H11.1469C10.9792 43.1521 10.6658 43.1301 10.5581 43.114L10.1473 43.2759C10.1441 43.2759 10.1403 43.2752 10.1377 43.2746V43.8943C10.2254 43.8891 10.5214 43.8614 10.7354 43.8614H12.7474C12.6158 44.2889 12.2483 44.8919 11.8755 45.3084C11.4609 45.7734 10.8838 46.266 10.2383 46.6246C10.1757 46.6517 10.1132 46.6781 10.0506 46.702L9.67467 46.8935C9.65726 46.9006 9.63985 46.9077 9.62244 46.9148L9.62566 46.9186L9.62244 46.9206H9.62824L10.0661 47.381C10.208 47.3146 10.3485 47.2404 10.4865 47.1611L10.4878 47.1624C11.1365 46.8587 11.755 46.4015 12.2786 45.8985C12.7874 46.3821 13.2903 46.9406 13.6295 47.4036V47.4087L14.0003 47.1843L14.4756 46.7626C14.1402 46.3518 13.487 45.6547 12.9299 45.1795L12.9305 45.1782Z" fill="#C1C1C1"/>
<path d="M18.9232 43.3249H17.6212C17.6431 43.2869 17.6593 43.2546 17.6805 43.2166C17.7399 43.1082 17.8534 42.898 17.9617 42.7355L17.3459 42.5408L17.0299 42.6949L17.0234 42.693C16.9796 42.8522 16.8809 43.0715 16.8151 43.1863C16.552 43.6744 16.0091 44.4689 15.0612 45.0557L15.5267 45.4174V45.4232L15.8704 45.2266C16.3825 44.8725 16.8255 44.4211 17.1685 43.9814H18.7065C18.6233 44.3019 18.4402 44.71 18.2048 45.0879C17.8817 44.8693 17.5522 44.6591 17.2646 44.4914L16.9454 44.6746C16.9454 44.6746 16.9422 44.6726 16.9409 44.672L16.5624 45.0615C16.8803 45.264 17.2749 45.5329 17.6535 45.8069C17.4555 46.0165 17.2233 46.2216 16.9519 46.4105C16.6526 46.5833 16.3128 46.7349 15.924 46.8535L15.5977 47.0625C15.5919 47.0644 15.5867 47.0663 15.5809 47.0676L15.5841 47.0708L15.5809 47.0728L15.5893 47.0747L16.0794 47.5061C16.574 47.3178 16.9944 47.0857 17.3542 46.8264C17.6657 46.6356 17.9365 46.4241 18.1726 46.2009C18.3744 46.3634 18.5595 46.5163 18.6988 46.6459V46.651L18.9973 46.4369L19.3971 45.9617C19.2295 45.8269 19.0186 45.6644 18.7916 45.5026C19.1863 44.9512 19.4668 44.3405 19.6183 43.8705C19.6564 43.7621 19.7157 43.6273 19.764 43.5351L19.3262 43.2649C19.2237 43.303 19.0721 43.3243 18.9212 43.3243L18.9232 43.3249Z" fill="#C1C1C1"/>
<path d="M21.792 44.6157C21.5005 44.6157 21.1652 44.5945 20.9866 44.5835L20.7241 44.7653C20.7241 44.7653 20.7196 44.7653 20.717 44.7653V45.445C20.9034 45.4289 21.2323 45.4179 21.5341 45.4179H24.5158C24.7538 45.4179 25.0021 45.4392 25.1246 45.445L25.1297 45.4508L25.3361 45.2541V44.5841C25.2007 44.5951 24.9905 44.6164 24.7306 44.6164H21.7914L21.792 44.6157Z" fill="#C1C1C1"/>
<path d="M27.92 43.3731C27.92 43.1842 27.9413 42.9462 27.958 42.7676H27.2932L27.1655 42.923H27.161C27.161 42.923 27.161 42.9262 27.1617 42.9275H27.161L27.1623 42.9294C27.1945 43.1152 27.2107 43.3634 27.2107 43.5375V46.7057C27.2107 46.9198 27.1939 47.2157 27.1668 47.4073H27.8342L27.8413 47.4124L27.9632 47.1874C27.9361 46.9926 27.92 46.6631 27.92 46.4955V45.0516C28.5165 45.2535 29.3309 45.574 29.8687 45.8654V45.8712L29.9622 45.6688L30.2053 45.08C29.665 44.815 28.6384 44.4319 27.92 44.2153V43.3724V43.3731Z" fill="#C1C1C1"/>
<path d="M35.695 43.2377C35.5164 43.2429 35.3223 43.2429 35.1978 43.2429H32.2638C32.129 43.2429 31.9555 43.2429 31.7395 43.2319L31.6744 43.3944C31.6744 43.3944 31.6731 43.3944 31.6724 43.3944C31.6724 43.3957 31.6724 43.3977 31.6724 43.399V43.4002C31.6827 43.5421 31.6827 43.731 31.6827 43.8716V46.5632C31.6827 46.7825 31.6718 47.221 31.6666 47.2706H32.2573L32.2644 47.2758L32.3231 47.0533C32.3205 47.0411 32.3192 47.0082 32.3186 46.9637H35.0979C35.0927 47.1171 35.0927 47.2429 35.0869 47.2706H35.6782L35.684 47.2758L35.6944 47.0533C35.6944 47.0101 35.6834 46.5452 35.6834 46.3562V43.7033C35.6834 43.5518 35.6834 43.3848 35.6944 43.2384L35.695 43.2377ZM32.3128 43.9542H35.0985V46.2098H32.3128V43.9542Z" fill="#C1C1C1"/>
<path d="M66.6561 44.5352L67.1127 44.7215L67.1139 44.7151L67.546 44.2721C67.239 43.9541 66.5265 43.3841 66.1428 43.1262L66.1389 43.13L65.7004 42.9675L65.3058 43.3893C65.7056 43.6595 66.3756 44.2482 66.6567 44.5345L66.6561 44.5352Z" fill="#C1C1C1"/>
<path d="M5.53404 42.9966C5.53017 42.9966 5.5263 42.9953 5.52307 42.9953L5.31995 43.5106C6.08603 43.6092 7.56854 43.9374 8.22241 44.178L8.22564 44.1844L8.67316 44.0058L8.89499 43.4764C8.21403 43.2384 6.71733 42.9308 6.00929 42.8386L5.53404 42.9966Z" fill="#C1C1C1"/>
<path d="M4.995 46.0442C4.995 46.0442 4.98855 46.0429 4.98597 46.0429L4.76672 46.5801C5.64888 46.7116 7.3242 47.0837 8.05417 47.3965L8.0561 47.4023L8.5062 47.1779L8.74415 46.6484C8.00387 46.3621 6.39368 45.9836 5.48057 45.843L4.99565 46.0442H4.995Z" fill="#C1C1C1"/>
<path d="M38.4839 44.1856C38.611 44.4532 38.8541 45.129 38.9192 45.3844L39.4286 45.2L39.4344 45.2032L39.4332 45.198H39.4344C39.4332 45.1935 39.4312 45.1877 39.4299 45.1832L39.3912 45.0097C39.3209 44.7718 39.0559 44.0644 38.9592 43.8374L38.451 44.0051L38.4807 44.1837L38.4839 44.1856Z" fill="#C1C1C1"/>
<path d="M49.834 43.4551C50.1699 43.6486 50.7484 44.0271 51.0256 44.2283L51.35 43.7634L51.3545 43.7621L51.3519 43.7602L51.3545 43.7569C51.3236 43.735 51.2868 43.7092 51.2468 43.6821L51.123 43.5899C50.8638 43.4061 50.2583 43.0063 49.9236 42.8174L49.6154 43.2875L49.8249 43.4558H49.834V43.4551Z" fill="#C1C1C1"/>
<path d="M52.6152 44.0909L52.6178 44.0844L52.9989 43.9213C52.8725 43.6633 52.6423 43.2796 52.4946 43.0662L52.4895 43.0681L52.2463 42.9082L51.8788 43.0649C52.0677 43.3241 52.2244 43.6053 52.365 43.9135L52.6146 44.0909H52.6152Z" fill="#C1C1C1"/>
<path d="M38.2151 45.5413C38.2196 45.5426 38.2228 45.5439 38.2228 45.5439V45.5387C38.2228 45.5374 38.2222 45.5368 38.2215 45.5355L38.1964 45.3459C38.0938 45.0486 37.8236 44.3677 37.6992 44.1194L37.191 44.3032L37.2026 44.4863H37.2059C37.3284 44.7075 37.6089 45.4426 37.7018 45.7309L38.2151 45.5419V45.5413Z" fill="#C1C1C1"/>
<path d="M40.9943 44.3592L40.9311 44.1838L40.3366 43.9949C40.2612 44.6758 39.991 45.3781 39.6182 45.843C39.1694 46.3995 38.4562 46.8103 37.8462 46.9831L37.8668 47.2049H37.8726L38.3221 47.6654C38.9418 47.4293 39.6215 46.9857 40.1257 46.3389C40.5094 45.8507 40.7454 45.2697 40.8931 44.6836C40.9144 44.5972 40.9473 44.4998 40.995 44.3663H40.9969L40.9963 44.3631C40.9963 44.3624 40.9963 44.3611 40.9969 44.3605H40.995L40.9943 44.3592Z" fill="#C1C1C1"/>
<path d="M45.6334 45.2672L45.507 45.0808C44.9911 44.828 44.0316 44.4669 43.3203 44.2464V43.5377C43.3203 43.3475 43.3416 43.1095 43.3584 42.9296C43.3584 42.9296 43.3584 42.9257 43.3584 42.9245H43.3552L43.2591 42.769H42.5942C42.6265 42.9528 42.6426 43.2011 42.6426 43.3746V46.4976C42.6426 46.7084 42.6265 46.9999 42.5994 47.1895L42.689 47.4145L42.6987 47.4094H43.3635C43.3365 47.2121 43.3197 46.8774 43.3197 46.7078V45.0138C43.9226 45.2111 44.8164 45.5567 45.3916 45.8688L45.636 45.2769H45.6386L45.6373 45.2749L45.6386 45.2717C45.6386 45.2717 45.6347 45.2698 45.6334 45.2691V45.2672Z" fill="#C1C1C1"/>
<path d="M50.2086 45.4561L50.522 44.9757L50.5265 44.9737L50.5246 44.9718L50.5265 44.9686C50.5168 44.9621 50.5065 44.9544 50.4962 44.9473L50.3073 44.7835C50.0532 44.6049 49.4373 44.227 49.0969 44.0432L48.7944 44.5081L48.9924 44.6939L48.9982 44.6919C49.3445 44.8789 49.9261 45.2491 50.2092 45.4561H50.2086Z" fill="#C1C1C1"/>
<path d="M53.2239 42.805L52.9705 42.6489L52.5978 42.8056C52.7867 43.0597 52.9544 43.3299 53.1059 43.6375L53.3664 43.8109V43.8058L53.7501 43.6362C53.6134 43.3841 53.3826 43.0055 53.2291 42.803L53.2239 42.805Z" fill="#C1C1C1"/>
<path d="M53.1775 44.2263L52.9221 44.0483C52.4901 44.8157 51.755 45.5399 50.8528 46.0532C50.2854 46.3666 49.6263 46.5665 49.0266 46.669L49.3452 47.2255L49.5509 47.4506C49.5509 47.4506 49.5541 47.448 49.5586 47.4435C50.0577 47.3493 50.8199 47.0869 51.3713 46.7709C52.2592 46.2499 53.0215 45.5483 53.5148 44.8028L53.1801 44.2218C53.1801 44.2218 53.1788 44.2244 53.1781 44.2257L53.1775 44.2263Z" fill="#C1C1C1"/>
<path d="M58.0964 44.3507L57.774 44.1727C57.7147 44.1998 57.6225 44.232 57.5419 44.2482C57.3678 44.2868 56.672 44.4203 56.0052 44.5487C55.962 44.3939 55.9265 44.2649 55.9039 44.1785C55.8711 44.0424 55.8388 43.9115 55.822 43.8026C55.8285 43.7645 55.5267 43.6323 55.5267 43.6323L54.9483 43.7729C55.0024 43.8645 55.0508 43.9838 55.0889 44.1185C55.1211 44.232 55.1804 44.4371 55.2507 44.6912C54.9534 44.7453 54.7264 44.7885 54.651 44.7995C54.4782 44.8266 54.3376 44.8479 54.1809 44.8588L54.3105 45.3773L54.5885 45.5759L54.593 45.5694C54.7245 45.5411 55.0482 45.4714 55.4384 45.3921C55.6241 46.0911 55.8266 46.8469 55.8943 47.0848C55.9375 47.2254 55.9646 47.3821 55.9807 47.5117L56.2825 47.7413L56.2863 47.7349L56.8744 47.5878C56.8364 47.4834 56.7758 47.2809 56.7429 47.1822C56.6604 46.9243 56.4082 46.0092 56.1948 45.2361C56.5507 45.1626 56.9009 45.0923 57.1749 45.0374C56.9808 45.3031 56.7152 45.6062 56.494 45.8042L56.8035 46.0086L56.8087 46.006L57.2801 46.2446C57.6637 45.8551 58.2228 45.0658 58.453 44.5944L58.1022 44.3475C58.1022 44.3475 58.0984 44.3488 58.0971 44.35L58.0964 44.3507Z" fill="#C1C1C1"/>
<path d="M61.282 43.6048L60.9293 43.4435L60.3186 43.3191C60.2483 43.9678 60.0323 44.7674 59.7943 45.3452C59.6054 45.8043 59.2971 46.3828 58.9567 46.8258L59.3017 47.045L59.3094 47.0431L59.8994 47.292C60.1954 46.8645 60.5082 46.2725 60.7055 45.7624C60.9196 45.2195 61.1169 44.436 61.1878 44.0742C61.2149 43.9556 61.2633 43.7511 61.3013 43.6144H61.3033L61.302 43.6131C61.302 43.6119 61.3026 43.6099 61.3033 43.6086L61.2826 43.6041L61.282 43.6048Z" fill="#C1C1C1"/>
<path d="M63.4294 45.1762C63.2101 44.6229 62.8483 43.8278 62.6233 43.4164L62.6162 43.419L62.2306 43.2539L61.6741 43.4377C61.9062 43.8433 62.2467 44.6158 62.4576 45.1775C62.6736 45.7559 62.9006 46.4691 63.0463 47.0579L63.4506 47.281L63.4551 47.2745L64.0755 47.0733C63.9278 46.5581 63.637 45.703 63.4287 45.1768L63.4294 45.1762Z" fill="#C1C1C1"/>
<path d="M63.8472 42.7188L63.5415 42.6014C63.4635 42.5666 63.3771 42.5466 63.2862 42.5466C62.9457 42.5466 62.6646 42.8278 62.6646 43.1734C62.6646 43.4307 62.82 43.6487 63.0399 43.7441L63.401 43.8989L63.4035 43.8944C63.4906 43.9395 63.5893 43.9653 63.6937 43.9653C64.0445 43.9653 64.3296 43.6861 64.3296 43.3346C64.3296 43.0374 64.1245 42.7878 63.8478 42.7182L63.8472 42.7188ZM63.3526 43.3346C63.3526 43.187 63.4487 43.0574 63.5809 43.009C63.6086 43.058 63.6254 43.1141 63.6254 43.1728C63.6254 43.3192 63.5261 43.4449 63.3926 43.49C63.3681 43.443 63.3526 43.3907 63.3526 43.3346Z" fill="#C1C1C1"/>
<path d="M69.634 43.9593C69.634 43.9593 69.6327 43.9625 69.6321 43.9638L69.142 43.7891C68.8125 44.481 68.1367 45.2909 67.2668 45.8261C66.7483 46.1447 66.0455 46.4478 65.1433 46.5825L65.5051 47.1391L65.9449 47.3628L65.9487 47.357C66.7967 47.2035 67.4912 46.8805 68.0445 46.5413C68.8996 46.0151 69.5741 45.2696 69.9687 44.5571L69.634 43.9593Z" fill="#C1C1C1"/>
<path d="M8.29663 46.8592L8.05545 47.3964C7.32613 47.0836 5.64888 46.7109 4.76672 46.5793L4.98597 46.0422C5.91262 46.1847 7.54602 46.5684 8.29663 46.8592ZM8.08318 45.1213L7.86909 45.6533C7.23327 45.4122 5.86813 45.0994 5.07367 44.9788L5.2768 44.4578C6.03901 44.5842 7.39835 44.8744 8.08318 45.1213ZM8.4501 43.6414L8.22505 44.1786C7.57246 43.9374 6.08737 43.6085 5.32 43.5099L5.52313 42.9946C6.24149 43.0881 7.75947 43.4002 8.4501 43.6414Z" fill="white"/>
<path d="M13.4438 43.8059C13.2516 44.2554 12.9286 44.8751 12.5449 45.3684C13.1098 45.8507 13.7727 46.5582 14.1125 46.9747L13.6302 47.4023C13.2684 46.909 12.7203 46.306 12.1773 45.8017C11.5905 46.4266 10.8509 47.0134 10.0667 47.3803L9.62244 46.9141C10.5104 46.5743 11.3326 45.9165 11.8755 45.3078C12.2483 44.8912 12.6158 44.2883 12.7474 43.8607H10.7354C10.522 43.8607 10.2254 43.8885 10.1377 43.8936V43.2739C10.2473 43.2901 10.5652 43.3126 10.7354 43.3126H12.7693C12.9724 43.3126 13.153 43.2907 13.2465 43.2578L13.6031 43.5209C13.565 43.5757 13.4825 43.7131 13.4445 43.8059H13.4438Z" fill="white"/>
<path d="M17.3626 43.3784C17.3406 43.4171 17.3239 43.45 17.302 43.4881H18.6233C18.7767 43.4881 18.9302 43.4661 19.0347 43.4281L19.479 43.7021C19.4293 43.7957 19.3693 43.9324 19.3307 44.042C19.1772 44.5192 18.8922 45.1382 18.4917 45.6973C18.7219 45.8617 18.936 46.0262 19.1056 46.1635L18.7 46.6459C18.5465 46.5034 18.3382 46.3331 18.1132 46.1526C17.625 46.6846 16.9731 47.1669 16.0793 47.5068L15.5802 47.0683C16.5178 46.7832 17.1807 46.306 17.6521 45.8076C17.2736 45.5335 16.8789 45.2646 16.561 45.0621L16.9396 44.6726C17.2684 44.8642 17.6521 45.1111 18.0197 45.3633C18.3434 44.919 18.6007 44.3825 18.7051 43.982H16.9731C16.6113 44.4811 16.1122 45.0125 15.526 45.4181L15.0598 45.0563C16.0084 44.4702 16.5507 43.6751 16.8138 43.1869C16.8796 43.0715 16.9782 42.8522 17.0221 42.6936L17.647 42.8909C17.5373 43.0554 17.4219 43.2695 17.3619 43.3791L17.3626 43.3784Z" fill="white"/>
<path d="M21.5341 44.7983H24.5158C24.7789 44.7983 24.993 44.7763 25.1297 44.7654V45.445C25.0092 45.4399 24.757 45.418 24.5158 45.418H21.5341C21.2323 45.418 20.9034 45.4289 20.717 45.445V44.7654C20.8982 44.7763 21.2381 44.7983 21.5341 44.7983Z" fill="white"/>
<path d="M27.2107 43.5377C27.2107 43.3623 27.1939 43.1102 27.161 42.9238H27.8355C27.8194 43.105 27.7975 43.3462 27.7975 43.5377V44.3928C28.5268 44.612 29.5682 45.0009 30.1164 45.2698L29.8694 45.8676C29.2935 45.5548 28.4004 45.2098 27.7975 45.0125V46.7065C27.7975 46.8761 27.8136 47.2108 27.8413 47.4081H27.1668C27.1939 47.2159 27.2107 46.92 27.2107 46.7065V43.5384V43.5377Z" fill="white"/>
<path d="M32.2044 43.406H35.1811C35.3074 43.406 35.5048 43.406 35.6853 43.4008C35.6744 43.5491 35.6744 43.7187 35.6744 43.8722V46.5638C35.6744 46.756 35.6853 47.2274 35.6853 47.2712H35.0875C35.0927 47.2435 35.0927 47.1177 35.0985 46.9643H32.2592C32.2592 47.1119 32.2592 47.2435 32.2644 47.2712H31.6666C31.6718 47.2216 31.6827 46.7831 31.6827 46.5638V43.8722C31.6827 43.7297 31.6827 43.5382 31.6718 43.395C31.891 43.406 32.0664 43.406 32.2038 43.406H32.2044ZM32.2534 46.4149H35.0985V43.9535H32.2534V46.4149Z" fill="white"/>
<path d="M38.2228 45.538L37.7017 45.7295C37.6089 45.4393 37.3232 44.6932 37.2026 44.4798L37.7179 44.2934C37.8443 44.5456 38.1183 45.2362 38.2221 45.538H38.2228ZM40.8925 44.6829C40.7441 45.2691 40.5088 45.8507 40.1251 46.3382C39.6208 46.985 38.9412 47.4293 38.3215 47.6647L37.8662 47.1985C38.4859 47.0231 39.2094 46.6065 39.664 46.0416C40.0426 45.5702 40.3166 44.8577 40.3934 44.167L40.9963 44.3592C40.9473 44.4959 40.9144 44.5952 40.8925 44.6823V44.6829ZM39.4345 45.1981L38.9192 45.3845C38.8534 45.1266 38.6065 44.4417 38.4807 44.1786L38.996 44.009C39.0946 44.2392 39.3635 44.9576 39.4345 45.1988V45.1981Z" fill="white"/>
<path d="M42.7335 43.5377C42.7335 43.3623 42.7167 43.1102 42.6838 42.9238H43.3584C43.3422 43.105 43.3203 43.3462 43.3203 43.5377V44.3928C44.0496 44.612 45.0911 45.0009 45.6392 45.2698L45.3922 45.8676C44.8164 45.5548 43.9232 45.2098 43.3203 45.0125V46.7065C43.3203 46.8761 43.3364 47.2108 43.3642 47.4081H42.6896C42.7167 47.2159 42.7335 46.92 42.7335 46.7065V43.5384V43.5377Z" fill="white"/>
<path d="M50.5266 44.968L50.2087 45.4561C49.9236 45.2478 49.3368 44.8751 48.9918 44.6888L49.2988 44.2174C49.6444 44.4037 50.2693 44.7874 50.5266 44.9686V44.968ZM51.0798 46.2564C51.9955 45.7354 52.741 45.0009 53.1795 44.2225L53.5142 44.8035C53.0208 45.549 52.2586 46.2506 51.3707 46.7716C50.8174 47.0895 50.0494 47.3526 49.5509 47.4461L49.2272 46.8812C49.8359 46.7768 50.5046 46.5743 51.0798 46.2564ZM51.3539 43.757L51.025 44.2283C50.7452 44.0259 50.159 43.6415 49.8243 43.45L50.1371 42.9728C50.4769 43.1643 51.0908 43.5706 51.3539 43.757ZM52.9989 43.9214L52.6152 44.0858C52.4727 43.7737 52.3141 43.4881 52.1219 43.225L52.4946 43.0663C52.6423 43.2798 52.8732 43.6641 52.9989 43.9214ZM53.7495 43.6364L53.3658 43.8066C53.2124 43.4939 53.0421 43.2198 52.8506 42.9625L53.2291 42.8032C53.3826 43.0064 53.6128 43.3842 53.7502 43.6364H53.7495Z" fill="white"/>
<path d="M55.904 44.1787C55.9368 44.3051 55.9975 44.5185 56.0684 44.7758C56.8087 44.6333 57.6689 44.4688 57.8662 44.425C57.9481 44.4089 58.0416 44.376 58.1022 44.3483L58.453 44.5952C58.2228 45.0666 57.6637 45.8559 57.2801 46.2454L56.8029 46.0042C57.115 45.7244 57.5154 45.2369 57.6857 44.9351C57.5541 44.9622 56.8854 45.0937 56.1948 45.2362C56.4089 46.0094 56.661 46.9244 56.7429 47.1824C56.7758 47.281 56.8364 47.4835 56.8744 47.588L56.2825 47.7357C56.2664 47.6041 56.2386 47.4455 56.1948 47.303C56.118 47.0341 55.8717 46.1132 55.6686 45.3458C55.1753 45.4445 54.7419 45.538 54.5885 45.5709L54.4569 45.0447C54.6162 45.0337 54.7587 45.0118 54.9341 44.9847C55.0108 44.9738 55.241 44.9299 55.5428 44.8751C55.4713 44.6178 55.4113 44.4095 55.3784 44.2941C55.3404 44.1574 55.2907 44.0362 55.2359 43.9433L55.8227 43.8008C55.8388 43.9104 55.8724 44.042 55.9052 44.1793L55.904 44.1787Z" fill="white"/>
<path d="M60.6835 43.4829L61.3032 43.6093C61.2652 43.746 61.2155 43.9549 61.1878 44.0755C61.1169 44.4372 60.9189 45.2214 60.7055 45.7637C60.5081 46.2738 60.1954 46.8657 59.8994 47.2933L59.3016 47.0411C59.6473 46.5917 59.9594 46.0049 60.1515 45.5393C60.3927 44.9525 60.612 44.1413 60.6835 43.4835V43.4829ZM62.059 43.6035L62.6239 43.4171C62.8489 43.8285 63.2107 44.623 63.43 45.1769C63.6382 45.7031 63.9291 46.5582 64.0767 47.0734L63.4519 47.2765C63.3036 46.6787 63.0734 45.9552 62.8541 45.369C62.64 44.799 62.295 44.0149 62.059 43.6041V43.6035ZM63.6924 42.6987C64.0432 42.6987 64.3282 42.9838 64.3282 43.3346C64.3282 43.6853 64.0432 43.9652 63.6924 43.9652C63.3416 43.9652 63.0617 43.686 63.0617 43.3346C63.0617 42.9831 63.3468 42.6987 63.6924 42.6987ZM63.6924 43.6744C63.8788 43.6744 64.038 43.5209 64.038 43.3346C64.038 43.1482 63.8788 42.9889 63.6924 42.9889C63.5061 42.9889 63.3526 43.1475 63.3526 43.3346C63.3526 43.5216 63.5061 43.6744 63.6924 43.6744Z" fill="white"/>
<path d="M67.7323 46.0261C68.6151 45.4831 69.2999 44.661 69.6346 43.9594L69.9693 44.5571C69.5747 45.2697 68.9001 46.0151 68.0451 46.5413C67.4911 46.8812 66.7954 47.2049 65.9454 47.3584L65.5779 46.7935C66.4936 46.6568 67.2061 46.3498 67.7323 46.0261ZM67.546 44.2721L67.1126 44.7158C66.8276 44.4256 66.1479 43.8278 65.7423 43.5538L66.1428 43.1262C66.5265 43.3842 67.239 43.9542 67.546 44.2721Z" fill="white"/>
<path d="M61.4302 21.6425L60.2186 21.9707V25.5193L57.5373 21.6418H53.507L52.6932 21.9701V30.7523L49.6456 21.6418H45.8384L45.4096 21.9701L44.0973 25.8927C43.0379 23.3971 40.5642 21.6418 37.6862 21.6418H31.4377V31.9633L28.0954 21.9707L27.6085 21.6425H23.8014L21.9906 27.0554V21.9707L21.1813 21.6425H15.8936V31.7821C15.8936 32.198 15.6995 32.5682 15.3983 32.81C14.8625 32.6681 14.4659 32.1813 14.4659 31.6015V27.5738L13.2587 27.5416H7.97095V31.7821C7.97095 35.4242 10.934 38.3873 14.5761 38.3873C15.575 38.3873 16.5223 38.1629 17.3722 37.7644H17.3735L18.4601 37.2427C18.5104 37.2175 18.56 37.1924 18.609 37.1666L18.2008 38.3873H23.7768L24.4559 37.8753L25.2284 35.5661H26.6909L27.635 38.3873H36.7267L36.7557 37.8753V35.5661H37.6882C38.9592 35.5661 40.1515 35.223 41.1781 34.6259L40.0915 37.8753L40.2392 38.3873H45.8152L46.7586 35.5661H48.2792L49.0517 37.8753L49.6727 38.3873H58.796V34.0894L61.4141 37.8753L62.689 38.3873H66.7193V21.6425H61.4315H61.4302ZM37.6682 30.1732H36.7551V26.9935H37.6682C38.5445 26.9935 39.2584 27.7067 39.2584 28.5836C39.2584 29.4606 38.5452 30.1732 37.6682 30.1732Z" fill="#C1C1C1"/>
<path d="M61.4303 21.6423V27.2712L57.5374 21.6423H53.5071V33.1851L49.6457 21.6423H45.8385L44.269 26.3355C43.3262 23.6072 40.732 21.6423 37.687 21.6423H31.4384V33.0897L27.6093 21.6423H23.8021L21.1821 29.4747V21.6423H15.8943V31.7819C15.8943 32.5087 15.303 33.0994 14.5769 33.0994C13.8508 33.0994 13.2594 32.508 13.2594 31.7819V27.5414H7.97168V31.7819C7.97168 35.4241 10.9348 38.3871 14.5769 38.3871C16.1264 38.3871 17.5522 37.8506 18.68 36.9543L18.2009 38.3871H23.7769L24.721 35.5659H26.691L27.6351 38.3871H36.7268V35.5659H37.6876C39.1289 35.5659 40.4689 35.1255 41.5812 34.3729L40.2386 38.3878H45.8147L46.7581 35.5666H48.7281L49.6721 38.3878H58.7955V32.7589L62.6884 38.3878H66.7187V21.643H61.431L61.4303 21.6423ZM37.6876 30.2782H36.7268V26.9301H37.6876C38.6104 26.9301 39.3617 27.6813 39.3617 28.6041C39.3617 29.5269 38.6104 30.2782 37.6876 30.2782Z" fill="white"/>
<path d="M28.5946 32.9222L26.3557 31.3101L25.7063 29.3684V24.2864L28.5946 32.9222Z" fill="#3666AE"/>
<path d="M50.6316 32.9222L48.392 31.3101L47.7427 29.3684V24.2864L50.6316 32.9222Z" fill="#FCD057"/>
<path d="M32.4707 37.3556L34.0828 35.7435V24.2864L32.4707 22.6743V37.3556Z" fill="#4BC3B9"/>
<path d="M54.5394 37.3556L56.1516 35.7435V24.2864L54.5394 22.6743V37.3556Z" fill="#4BC3B9"/>
<path d="M64.0742 35.7435L62.462 30.5776V22.6743L64.0742 24.2864V35.7435Z" fill="#FCD057"/>
<path d="M63.2287 37.3555L64.0741 35.7434L56.1515 24.2864L57.7636 29.4523L63.2287 37.3555Z" fill="#259F88"/>
<path d="M23.9781 34.5342L22.8174 32.9221H28.5946L27.4339 34.5342H23.9781Z" fill="#58529C"/>
<path d="M19.6344 37.3555L21.7127 36.2251L23.0347 37.3555H19.6344Z" fill="#FCD057"/>
<path d="M31.7776 37.3555L29.6999 36.2251L28.3779 37.3555H31.7776Z" fill="#8475AC"/>
<path d="M46.0151 34.5342L44.8544 32.9221H50.6316L49.4708 34.5342H46.0151Z" fill="#3666AE"/>
<path d="M41.6714 37.3555L43.7491 36.2251L45.071 37.3555H41.6714Z" fill="#8475AC"/>
<path d="M53.8146 37.3555L51.7362 36.2251L50.4143 37.3555H53.8146Z" fill="#7CD0EA"/>
<path d="M32.4707 37.3555L34.0828 35.7434L35.6949 37.3555H32.4707Z" fill="#3666AE"/>
<path d="M54.5394 37.3555L56.1516 35.7434L57.7637 37.3555H54.5394Z" fill="#58529C"/>
<path d="M63.2288 37.3555L64.0742 35.7434L65.6863 37.3555H63.2288Z" fill="#7CD0EA"/>
<path d="M10.6162 30.1854L9.00403 28.5732H12.2283L10.6162 30.1854Z" fill="#FCD057"/>
<path d="M18.5388 24.2864L16.9266 22.6743H20.1509L18.5388 24.2864Z" fill="#F49841"/>
<path d="M25.7063 24.2864L24.5455 22.6743H26.867L25.7063 24.2864Z" fill="#F49841"/>
<path d="M47.7428 24.2864L46.582 22.6743H48.9035L47.7428 24.2864Z" fill="#F49841"/>
<path d="M22.8174 32.9222L25.0569 31.3101H26.3557L28.5946 32.9222H22.8174Z" fill="#7CD0EA"/>
<path d="M44.8544 32.9222L47.0933 31.3101H48.392L50.6316 32.9222H44.8544Z" fill="#4BC3B9"/>
<path d="M56.1516 24.2864L54.5394 22.6743H56.9963L56.1516 24.2864Z" fill="#FCD057"/>
<path d="M64.0742 24.2864L62.462 22.6743H65.6863L64.0742 24.2864Z" fill="#F49841"/>
<path d="M25.7063 24.2864L24.5456 22.6743L19.6344 37.3556L21.7127 36.2252L25.7063 24.2864Z" fill="#7CD0EA"/>
<path d="M47.7426 24.2864L46.5819 22.6743L41.6714 37.3556L43.7491 36.2252L47.7426 24.2864Z" fill="#259F88"/>
<path d="M28.3779 37.3555L29.6998 36.225L28.5946 32.9221L27.4338 34.5342L28.3779 37.3555Z" fill="#3666AE"/>
<path d="M50.4144 37.3555L51.7363 36.225L50.6317 32.9221L49.4709 34.5342L50.4144 37.3555Z" fill="#FCD057"/>
<path d="M23.0347 37.3555L21.7128 36.225L22.8174 32.9221L23.9781 34.5342L23.0347 37.3555Z" fill="#F49841"/>
<path d="M22.8174 32.9222L25.0569 31.3101L25.7063 29.3684V24.2864L22.8174 32.9222Z" fill="#F49841"/>
<path d="M45.0711 37.3555L43.7491 36.225L44.8544 32.9221L46.0151 34.5342L45.0711 37.3555Z" fill="#58529C"/>
<path d="M44.8544 32.9222L47.0933 31.3101L47.7426 29.3684V24.2864L44.8544 32.9222Z" fill="#58529C"/>
<path d="M31.7776 37.3556L29.6998 36.2252L25.7063 24.2864L26.867 22.6743L31.7776 37.3556Z" fill="#58529C"/>
<path d="M53.8146 37.3556L51.7362 36.2252L47.7427 24.2864L48.9034 22.6743L53.8146 37.3556Z" fill="#3666AE"/>
<path d="M34.0829 32.9222L35.695 31.3101V25.8985L34.0829 24.2864V32.9222Z" fill="#8475AC"/>
<path d="M35.695 34.5342L34.0829 32.9221V35.7433L35.695 37.3555V34.5342Z" fill="#8475AC"/>
<path d="M57.7636 29.2653L56.1515 24.2864V35.7434L57.7636 37.3555V29.2653Z" fill="#3666AE"/>
<path d="M65.6862 37.3556L64.0741 35.7435V24.2864L65.6862 22.6743V37.3556Z" fill="#3666AE"/>
<path d="M64.0741 35.7435L56.1515 24.2864L56.9962 22.6743L62.462 30.5776L64.0741 35.7435Z" fill="#58529C"/>
<path d="M18.5387 24.2864V31.7822C18.5387 33.9701 16.7654 35.7435 14.5774 35.7435C12.3894 35.7435 10.6161 33.9701 10.6161 31.7822V30.1855L12.2282 28.5734V31.7822C12.2282 33.0777 13.2819 34.1314 14.5774 34.1314C15.8729 34.1314 16.9266 33.0777 16.9266 31.7822V22.6743L18.5387 24.2864Z" fill="#259F88"/>
<path d="M18.5388 24.2864V31.7822C18.5388 33.9701 16.7654 35.7435 14.5775 35.7435C12.3895 35.7435 10.6162 33.9701 10.6162 31.7822V30.1855L9.00403 28.5734V31.7822C9.00403 34.8555 11.5041 37.3556 14.5775 37.3556C17.6508 37.3556 20.1509 34.8555 20.1509 31.7822V22.6743L18.5388 24.2864Z" fill="#3666AE"/>
<path d="M34.0828 32.9223H37.6875C40.0722 32.9223 42.0054 30.989 42.0054 28.6043C42.0054 26.2197 40.0722 24.2864 37.6875 24.2864H34.0828L32.4707 22.6743H37.6875C40.9576 22.6743 43.6176 25.3343 43.6176 28.6043C43.6176 31.8744 40.9576 34.5344 37.6875 34.5344H35.6949L34.0828 32.9223Z" fill="#F49841"/>
<path d="M35.695 31.3101H37.6876C39.1798 31.3101 40.3934 30.0965 40.3934 28.6043C40.3934 27.1121 39.1798 25.8985 37.6876 25.8985H35.695L34.0829 24.2864H37.6876C40.0722 24.2864 42.0055 26.2196 42.0055 28.6043C42.0055 30.9889 40.0722 32.9222 37.6876 32.9222H34.0829L35.695 31.3101Z" fill="#58529C"/>
<path d="M59.7311 0L58.6052 1.4148V2.75157C57.8907 2.48589 57.1182 2.34016 56.3121 2.34016C53.6779 2.34016 51.3996 3.89038 50.3402 6.12542C49.1839 3.87941 46.8412 2.34016 44.1464 2.34016H26.0751V6.10479C25.0163 5.38256 23.7382 4.96018 22.3627 4.96018C21.9436 4.96018 21.5309 4.99952 21.1266 5.07625L21.0453 4.96018H18.177V1.4148L17.1659 0H12.7816L9.10463 8.54232L6.03708 1.4148L4.38433 0H0V19.0856L1.87264 19.5422H6.89473V19.1011L8.37143 19.5422H11.6776L11.8775 19.0772V19.085L13.1536 19.5415H21.8604V12.3992C21.8604 11.7092 22.4221 11.1475 23.112 11.1475C23.3029 11.1475 23.4828 11.1914 23.6447 11.2681C23.6666 11.3635 23.6795 11.4622 23.6795 11.5641V14.208L24.2663 14.8103C23.9039 15.2616 23.6866 15.8336 23.6866 16.4559C23.6866 17.2832 24.0703 18.0229 24.6681 18.5065L24.6977 18.5297C24.7203 18.5478 24.7429 18.5652 24.7661 18.582L25.2916 18.9837C25.7237 19.3365 26.2744 19.5492 26.8747 19.5492C28.256 19.5492 29.3793 18.4259 29.3793 17.0447C29.3793 16.5391 29.2284 16.0684 28.9699 15.6744L28.9679 15.6711C28.9673 15.6698 28.966 15.6685 28.9653 15.6673L28.5655 15.0695H28.5636C28.5294 15.0147 28.494 14.9611 28.4566 14.9089H29.3851V12.3979C29.3851 11.4996 29.1943 10.6458 28.8531 9.87264H28.8538L28.8003 9.75592C28.7912 9.73593 28.7822 9.71594 28.7732 9.6966L28.4108 8.91053H28.4101C28.3727 8.82605 28.3334 8.74158 28.2928 8.65904H30.0364V19.0843L30.4014 19.5409H35.4235V8.65904H37.8675V19.5409H42.8896L43.1849 19.0843V16.8615H43.802C43.8665 16.8615 43.931 16.8609 43.9955 16.8589L45.5612 19.5415H51.3764L52.1206 19.085L51.6969 18.3595C52.728 19.103 53.9919 19.5415 55.3571 19.5415C56.1793 19.5415 56.9653 19.3822 57.685 19.0933L57.6934 19.0901C57.8327 19.034 57.9694 18.9734 58.1035 18.9076L58.7967 18.5987C58.9283 18.5452 59.0585 18.4872 59.1856 18.4253L59.1881 18.424C61.3929 17.3522 62.916 15.0901 62.916 12.4791V8.9447C62.916 8.05675 62.7387 7.21006 62.4195 6.43624H63.1546V19.5415H68.1767L69.8088 19.085V6.43753H72.7274L74.6 5.28776V0H59.7292H59.7311ZM56.3121 13.7978C55.5854 13.7978 54.9947 13.2065 54.9947 12.4804V8.94599C54.9947 8.86474 55.0031 8.78607 55.0172 8.70869C55.1256 8.67774 55.2397 8.66033 55.3577 8.66033C56.0477 8.66033 56.6094 9.22199 56.6094 9.91198V13.2691C56.6094 13.4528 56.5688 13.6263 56.4972 13.7837C56.4366 13.792 56.3753 13.7985 56.3121 13.7985V13.7978ZM45.3819 10.4304C45.0756 10.7658 44.6352 10.9766 44.1464 10.9766H43.1856V8.66097H43.8027C44.679 8.66097 45.3929 9.37417 45.3929 10.2512C45.3929 10.3118 45.389 10.3718 45.3826 10.4311L45.3819 10.4304Z" fill="#C1C1C1"/>
<path d="M59.7311 0V3.29647C58.7329 2.69031 57.5625 2.3408 56.3121 2.3408C53.6779 2.3408 51.3996 3.89102 50.3402 6.12607C49.1839 3.88006 46.8412 2.3408 44.1464 2.3408H26.0751V6.10543C25.0163 5.3832 23.7382 4.96083 22.3627 4.96083C21.9152 4.96083 21.4754 5.00468 21.0453 5.09238V4.96083H17.1659V0H12.7816L8.58294 9.75464L4.38433 0H0V19.0856H5.28776V15.4738L6.8425 19.0856H10.3234L11.8781 15.4738V19.0856H21.0453V11.5654C21.0453 10.8386 21.6366 10.2479 22.3627 10.2479C23.0888 10.2479 23.6802 10.8393 23.6802 11.5654V14.2093H24.9466C24.1915 14.6735 23.6866 15.5073 23.6866 16.4572C23.6866 17.9113 24.8699 19.094 26.3234 19.094C27.7769 19.094 28.9602 17.9107 28.9602 16.4572C28.9602 15.5073 28.4553 14.6735 27.7001 14.2093H28.9666V11.5654C28.9666 10.0912 28.4811 8.72868 27.6615 7.62857H30.0345V19.0856H35.3223V7.62857H37.8959V19.0856H43.1836V16.2644H44.1444C44.2122 16.2644 44.2805 16.2631 44.3482 16.2612L45.9971 19.0856H52.1199L49.2007 14.0848C49.4058 13.8681 49.596 13.6399 49.7701 13.4013C50.2196 16.6094 52.9815 19.0856 56.3108 19.0856C59.9529 19.0856 62.916 16.1225 62.916 12.4804V8.94599C62.916 7.59375 62.5072 6.33564 61.8075 5.28776H64.5217V19.0856H69.8094V5.28776H74.6013V0H59.7305H59.7311ZM54.9947 8.94599C54.9947 8.21925 55.586 7.62857 56.3121 7.62857C57.0382 7.62857 57.6295 8.21989 57.6295 8.94599V12.4804C57.6295 13.2072 57.0382 13.7978 56.3121 13.7978C55.586 13.7978 54.9947 13.2065 54.9947 12.4804V8.94599ZM43.1849 7.62857H44.1457C45.0685 7.62857 45.8198 8.37982 45.8198 9.3026C45.8198 10.2254 45.0685 10.9766 44.1457 10.9766H43.1849V7.62857Z" fill="white"/>
<path d="M27.9356 13.1775V11.5654C27.9356 8.49202 25.4355 5.99194 22.3621 5.99194C19.2888 5.99194 16.7887 8.49202 16.7887 11.5654V13.1775L18.4008 11.5654C18.4008 9.3774 20.1742 7.60407 22.3621 7.60407C24.5501 7.60407 26.3234 9.3774 26.3234 11.5654L27.9356 13.1775Z" fill="#F49841"/>
<path d="M20.0129 13.1774V11.5653C20.0129 10.2698 21.0666 9.21613 22.3621 9.21613C23.6576 9.21613 24.7113 10.2698 24.7113 11.5653V13.1774L26.3234 11.5653C26.3234 9.37734 24.55 7.604 22.3621 7.604C20.1741 7.604 18.4008 9.37734 18.4008 11.5653L20.0129 13.1774Z" fill="#4BC3B9"/>
<path d="M1.03174 1.03174L2.64386 2.64386V16.4417L1.03174 18.0538V1.03174Z" fill="#4BC3B9"/>
<path d="M8.58301 16.4417V12.3643L13.4606 1.03174L14.5214 2.64386L8.58301 16.4417Z" fill="#4BC3B9"/>
<path d="M16.7887 5.99194L18.4008 7.60407V16.4417L16.7887 18.0538V5.99194Z" fill="#7CD0EA"/>
<path d="M28.7183 4.98468L27.1062 3.37256V6.59681L28.7183 4.98468Z" fill="#7CD0EA"/>
<path d="M31.0675 3.37256L32.6796 4.98468V16.4417L31.0675 18.0538V3.37256Z" fill="#259F88"/>
<path d="M38.929 3.37256L40.5411 4.98468V16.4417L38.929 18.0538V3.37256Z" fill="#4BC3B9"/>
<path d="M44.3088 14.1441L45.7011 13.3315L47.5163 16.4417L46.591 18.0538L44.3088 14.1441Z" fill="#7CD0EA"/>
<path d="M62.3749 2.64386L60.7628 1.03174V4.25598L62.3749 2.64386Z" fill="#FCD057"/>
<path d="M65.5547 1.03174V18.0538L67.1668 16.4417V2.64386L65.5547 1.03174Z" fill="#7CD0EA"/>
<path d="M2.64392 2.6438L4.25604 10.4671V18.0538L2.64392 16.4416V2.6438Z" fill="#7CD0EA"/>
<path d="M14.5214 2.6438L8.58301 16.4416L9.64378 18.0538L12.9093 10.4671L14.5214 2.6438Z" fill="#F49841"/>
<path d="M20.0129 5.99194L18.4008 7.60407V16.4417L20.0129 18.0538V5.99194Z" fill="#58529C"/>
<path d="M38.2531 3.37256L36.641 4.98468L38.2531 6.59681V3.37256Z" fill="#FCD057"/>
<path d="M34.2918 3.37256L32.6797 4.98468V16.4417L34.2918 18.0538V3.37256Z" fill="#58529C"/>
<path d="M42.1531 6.59674L40.541 4.98462V13.6204L42.1531 12.0083V6.59674Z" fill="#259F88"/>
<path d="M40.541 13.6206L42.1531 15.2327V18.0539L40.541 16.4418V13.6206Z" fill="#259F88"/>
<path d="M47.5163 16.4417L45.701 13.3316L47.0933 12.519L50.324 18.0538L47.5163 16.4417Z" fill="#8475AC"/>
<path d="M68.779 1.03174L67.1669 2.64386V16.4417L68.779 18.0538V1.03174Z" fill="#3666AE"/>
<path d="M73.5703 1.03174L71.9581 2.64386L73.5703 4.25598V1.03174Z" fill="#58529C"/>
<path d="M16.1335 1.03174L14.5214 2.64386V16.4417L16.1335 18.0538V1.03174Z" fill="#58529C"/>
<path d="M2.64392 2.64386L3.70534 1.03174L8.58298 12.3643V16.4417L2.64392 2.64386Z" fill="#259F88"/>
<path d="M2.64386 2.64386L1.03174 1.03174H3.70528L2.64386 2.64386Z" fill="#F49841"/>
<path d="M14.5213 2.6438L12.9092 10.4671V18.0538L14.5213 16.4416V2.6438Z" fill="#3666AE"/>
<path d="M7.52156 18.0538L8.58298 16.4416L2.64392 2.6438L4.25604 10.4671L7.52156 18.0538Z" fill="#8475AC"/>
<path d="M14.5213 2.64386L13.4606 1.03174H16.1335L14.5213 2.64386Z" fill="#FCD057"/>
<path d="M18.4008 7.60407L16.7887 5.99194H20.0129L18.4008 7.60407Z" fill="#FCD057"/>
<path d="M28.7183 4.98468L27.1062 3.37256H38.2531L36.6409 4.98468H28.7183Z" fill="#F49841"/>
<path d="M62.3749 2.64386L60.7628 1.03174H73.5702L71.958 2.64386H62.3749Z" fill="#F49841"/>
<path d="M1.03174 18.0538L2.64386 16.4417L4.25598 18.0538H1.03174Z" fill="#58529C"/>
<path d="M7.52148 18.0538L8.58291 16.4417L9.64368 18.0538H7.52148Z" fill="#58529C"/>
<path d="M12.9092 18.0538L14.5213 16.4417L16.1334 18.0538H12.9092Z" fill="#8475AC"/>
<path d="M18.4008 16.4417L16.7887 18.0538H20.0129L18.4008 16.4417Z" fill="#3666AE"/>
<path d="M27.1062 6.59674L28.7183 4.98462H36.6409L38.2531 6.59674H27.1062Z" fill="#4BC3B9"/>
<path d="M31.0675 18.0538L32.6796 16.4417L34.2918 18.0538H31.0675Z" fill="#8475AC"/>
<path d="M38.929 18.0538L40.5411 16.4417L42.1532 18.0538H38.929Z" fill="#3666AE"/>
<path d="M46.5911 18.0538L47.5164 16.4417L50.3241 18.0538H46.5911Z" fill="#FCD057"/>
<path d="M60.7628 4.25592L62.3749 2.6438H71.958L73.5702 4.25592H60.7628Z" fill="#259F88"/>
<path d="M65.5547 18.0538L67.1668 16.4417L68.7789 18.0538H65.5547Z" fill="#58529C"/>
<path d="M24.7113 13.1776L26.3234 11.5654L27.9355 13.1776H24.7113Z" fill="#8475AC"/>
<path d="M42.1532 15.2326H44.1458C47.4158 15.2326 50.0758 12.5726 50.0758 9.30259C50.0758 6.03256 47.4158 3.37256 44.1458 3.37256H38.929L40.5411 4.98468H44.1458C46.5304 4.98468 48.4637 6.91794 48.4637 9.30259C48.4637 11.6872 46.5304 13.6205 44.1458 13.6205H40.5411L42.1532 15.2326Z" fill="#F49841"/>
<path d="M40.541 13.6204H44.1457C46.5304 13.6204 48.4636 11.6872 48.4636 9.30253C48.4636 6.91788 46.5304 4.98462 44.1457 4.98462H40.541L42.1531 6.59674H44.1457C45.6379 6.59674 46.8515 7.81035 46.8515 9.30253C46.8515 10.7947 45.6379 12.0083 44.1457 12.0083H42.1531L40.541 13.6204Z" fill="#58529C"/>
<path d="M56.3121 3.37256C53.2387 3.37256 50.7386 5.87264 50.7386 8.94599V12.4804C50.7386 15.5538 53.2387 18.0538 56.3121 18.0538C59.3854 18.0538 61.8855 15.5538 61.8855 12.4804V8.94599C61.8855 5.87264 59.3854 3.37256 56.3121 3.37256ZM60.2734 12.4804C60.2734 14.6684 58.5001 16.4417 56.3121 16.4417C54.1241 16.4417 52.3508 14.6684 52.3508 12.4804V8.94599C52.3508 6.75802 54.1241 4.98468 56.3121 4.98468C58.5001 4.98468 60.2734 6.75802 60.2734 8.94599V12.4804Z" fill="#259F88"/>
<path d="M56.3121 4.98462C54.1242 4.98462 52.3508 6.75795 52.3508 8.94593V12.4803C52.3508 14.6683 54.1242 16.4417 56.3121 16.4417C58.5001 16.4417 60.2734 14.6683 60.2734 12.4803V8.94593C60.2734 6.75795 58.5001 4.98462 56.3121 4.98462ZM58.6613 12.4803C58.6613 13.7758 57.6076 14.8295 56.3121 14.8295C55.0166 14.8295 53.963 13.7758 53.963 12.4803V8.94593C53.963 7.65043 55.0166 6.59674 56.3121 6.59674C57.6076 6.59674 58.6613 7.65043 58.6613 8.94593V12.4803Z" fill="#F49841"/>
<path d="M26.3234 18.0621C27.2098 18.0621 27.9284 17.3435 27.9284 16.4571C27.9284 15.5706 27.2098 14.8521 26.3234 14.8521C25.437 14.8521 24.7184 15.5706 24.7184 16.4571C24.7184 17.3435 25.437 18.0621 26.3234 18.0621Z" fill="#58529C"/>
<path d="M26.3234 17.0306C26.64 17.0306 26.8967 16.7739 26.8967 16.4573C26.8967 16.1407 26.64 15.884 26.3234 15.884C26.0068 15.884 25.7501 16.1407 25.7501 16.4573C25.7501 16.7739 26.0068 17.0306 26.3234 17.0306Z" fill="#F49841"/>
</svg>
